{"title":"Hell House S01E03  House Of Lost Souls 720p HDTV HEVC 2CH x265","uid":15691585,"size":354299810,"categoryP":"video","categoryS":"hd___tv_shows","magnet":"?xt=urn:btih:f6d7d2de5956f100e566f406e0f46962d21db6b5&amp;dn=Hell+House+S01E03++House+Of+Lost+Souls+720p+HDTV+HEVC+2CH+x265&amp;tr=udp%3A%2F%2Ftracker.leechers-paradise.org%3A6969&amp;tr=udp%3A%2F%2Fzer0day.ch%3A1337&amp;tr=udp%3A%2F%2Fopen.demonii.com%3A1337&amp;tr=udp%3A%2F%2Ftracker.coppersurfer.tk%3A6969&amp;tr=udp%3A%2F%2Fexodus.desync.com%3A6969","seeders":1,"leechers":1,"uploader":"nayhtut","files":1,"time":1472409855,"description":"[Screenshots]\r\n \nhttps://s16.postimg.org/t8wqty0it/Hell_House_S01_E03_House_Of_Lost_Souls_720p_HDTV.jpg \nhttps://s16.postimg.org/pqkqxjzmt/Hell_House_S01_E03_House_Of_Lost_Souls_720p_HDTV.jpg\r\n\r\nSource: Hell House S01E03 House Of Lost Souls 720p HDTV X264-BullRout (1 GB)\r\n\r\n\r\n__--__--__--__--__--__--__--__--__--__--__--__--__--\r\n\r\n\r\nComplete name                            : Hell.House.S01E03.House.Of.Lost.Souls.720p.HDTV.HEVC.2CH.x265.mkv\r\nFormat                                   : Matroska\r\nFormat version                           : Version 4 / Version 2\r\nFile size                                : 338 MiB\r\nDuration                                 : 43mn 22s\r\nOverall bit rate                         : 1 089 Kbps\r\nWriting application                      : Lavf57.25.100\r\nWriting library                          : Lavf57.25.100\r\n\r\nVideo\r\n\r\nID                                       : 1\r\nFormat                                   : V_MPEGH/ISO/HEVC\r\nCodec ID                                 : V_MPEGH/ISO/HEVC\r\nDuration                                 : 43mn 22s\r\nBit rate                                 : 875 Kbps\r\nWidth                                    : 1 280 pixels\r\nHeight                                   : 720 pixels\r\nDisplay aspect ratio                     : 16:9\r\nFrame rate                               : 25.000 fps\r\nBits/(Pixel*Frame)                       : 0.038\r\nStream size                              : 272 MiB (80%)\r\nWriting library                          : Lavc57.48.101 libx265\r\nDefault                                  : Yes\r\nForced                                   : No\r\nDURATION                                 : 00:43:22.611000000\r\nNUMBER_OF_FRAMES                         : 65064\r\nNUMBER_OF_BYTES                          : 946686126\r\n_STATISTICS_WRITING_APP                  : mkvmerge v8.8.0 ('Wind at my back') 64bit\r\n_STATISTICS_WRITING_DATE_UTC             : 2016-02-25 04:56:22\r\n_STATISTICS_TAGS                         : BPS DURATION NUMBER_OF_FRAMES NUMBER_OF_BYTES\r\n\r\nAudio\r\n\r\nID                                       : 2\r\nFormat                                   : AC-3\r\nFormat/Info                              : Audio Coding 3\r\nMode extension                           : CM (complete main)\r\nFormat settings, Endianness              : Big\r\nCodec ID                                 : A_AC3\r\nDuration                                 : 43mn 22s\r\nBit rate mode                            : Constant\r\nBit rate                                 : 192 Kbps\r\nChannel(s)                               : 2 channels\r\nChannel positions                        : Front: L R\r\nSampling rate                            : 48.0 KHz\r\nBit depth                                : 16 bits\r\nCompression mode                         : Lossy\r\nStream size                              : 59.6 MiB (18%)\r\nWriting library                          : Lavc57.24.102 ac3\r\nDefault                                  : Yes\r\nForced                                   : No\r\nDURATION                                 : 00:43:22.623000000\r\nNUMBER_OF_FRAMES                         : 81330\r\nNUMBER_OF_BYTES                          : 124922880\r\n_STATISTICS_WRITING_APP                  : mkvmerge v8.8.0 ('Wind at my back') 64bit\r\n_STATISTICS_WRITING_DATE_UTC             : 2016-02-25 04:56:22\r\n_STATISTICS_TAGS                         : BPS DURATION NUMBER_OF_FRAMES NUMBER_OF_BYTES\r\n\r\n__--__--__--__--__--__--__--__--__--__--__--__--__--\r\n\r\n\r\nIMDb: http://www.imdb.com/title/tt5120552\r\n\r\nAfter adding torrent with magnet link,\r\n\r\nplease add this  following trackers list to the torrent for better seeds.\r\n\r\n\r\nudp://tracker.coppersurfer.tk:6969/announce\r\n\r\nudp://tracker.opentrackr.org:1337/announce\r\n \nhttp://tracker.baravik.org:6970/announce\r\n \nhttp://tracker2.wasabii.com.tw:6969/announce\r\n\r\nudp://9.rarbg.me:2710/announce\r\n\r\n\r\n__--__--__--__--__--__--__--__--__--__--__--__--__--\r\n\r\n\r\nEnjoy!","torrent":{"xt":"urn:btih:f6d7d2de5956f100e566f406e0f46962d21db6b5","amp;dn":"Hell+House+S01E03++House+Of+Lost+Souls+720p+HDTV+HEVC+2CH+x265","amp;tr":["udp%3A%2F%2Ftracker.leechers-paradise.org%3A6969","udp%3A%2F%2Fzer0day.ch%3A1337","udp%3A%2F%2Fopen.demonii.com%3A1337","udp%3A%2F%2Ftracker.coppersurfer.tk%3A6969","udp%3A%2F%2Fexodus.desync.com%3A6969"],"infoHash":"f6d7d2de5956f100e566f406e0f46962d21db6b5","infoHashBuffer":{"type":"Buffer","data":[246,215,210,222,89,86,241,0,229,102,244,6,224,244,105,98,210,29,182,181]},"announce":[],"urlList":[]}}